<svg width="16.000000" height="16.000000" viewBox="0 0 16 16" fill="none" xmlns="http://www.w3.org/2000/svg" xmlns:xlink="http://www.w3.org/1999/xlink">
    <defs>
        <clipPath id="clip175_75615">
            <rect width="16.000000" height="16.000000" fill="white" fill-opacity="0"/>
        </clipPath>
    </defs>
    <g clip-path="url(#clip175_75615)">
        <path d="M9.99976 1.33594C9.63147 1.33594 9.33301 1.63477 9.33301 2.00293C9.33301 2.37109 9.63147 2.66895 9.99976 2.66895L12.3868 2.66895L6.19507 8.86133C5.93469 9.12109 5.93469 9.54395 6.19507 9.80371C6.45544 10.0645 6.87756 10.0645 7.13782 9.80371L13.333 3.6084L13.333 6.00293C13.333 6.37109 13.6315 6.66895 13.9998 6.66895C14.3679 6.66895 14.6664 6.37109 14.6664 6.00293L14.6664 2.00293C14.6664 1.63477 14.3679 1.33594 13.9998 1.33594L9.99976 1.33594ZM3.33301 4.66699C3.15625 4.66699 2.98657 4.73633 2.86157 4.86133C2.73657 4.9873 2.66638 5.15625 2.66638 5.33301L2.66638 12.667C2.66638 12.8438 2.73657 13.0127 2.86157 13.1377C2.98657 13.2627 3.15625 13.333 3.33301 13.333L10.6664 13.333C10.8431 13.333 11.0127 13.2627 11.1377 13.1377C11.2628 13.0127 11.333 12.8438 11.333 12.667L11.333 8.66699C11.333 8.29883 11.6315 8 11.9996 8C12.3679 8 12.6664 8.29883 12.6664 8.66699L12.6664 12.667C12.6664 13.1973 12.4556 13.7061 12.0806 14.0811C11.7054 14.4561 11.1968 14.667 10.6664 14.667L3.33301 14.667C2.80261 14.667 2.29382 14.4561 1.91882 14.0811C1.5437 13.7061 1.33301 13.1973 1.33301 12.667L1.33301 5.33301C1.33301 4.80273 1.5437 4.29395 1.91882 3.91895C2.29382 3.54395 2.80261 3.33301 3.33301 3.33301L7.33301 3.33301C7.70117 3.33301 7.99963 3.63184 7.99963 4C7.99963 4.36816 7.70117 4.66699 7.33301 4.66699L3.33301 4.66699Z" clip-rule="evenodd" fill="#FFFFFF" fill-opacity="1.000000" fill-rule="evenodd"/>
    </g>
</svg>