<svg width="24.000000" height="24.000000" viewBox="0 0 24 24" fill="none" xmlns="http://www.w3.org/2000/svg" xmlns:xlink="http://www.w3.org/1999/xlink">
    <defs>
        <clipPath id="clip175_75538">
            <rect id="icon" width="16.000000" height="16.000000" transform="translate(4.000000 4.000000)" fill="white" fill-opacity="0"/>
        </clipPath>
        <radialGradient gradientTransform="translate(12 12) rotate(90) scale(8 8)" cx="0.000000" cy="0.000000" r="1.000000" id="paint_angular_175_75541_0" gradientUnits="userSpaceOnUse">
            <stop stop-color="#FFFFFF" stop-opacity="0.000000"/>
            <stop offset="1.000000" stop-color="#000000"/>
        </radialGradient>
    </defs>
    <g clip-path="url(#clip175_75538)">
        <path id="Shape" d="M17.3335 4.58691C16.7816 4.58691 16.2523 4.80566 15.8621 5.19629L9.52875 11.5293C9.4433 11.6152 9.38269 11.7227 9.35339 11.8398L8.68671 14.5059C8.62988 14.7334 8.69647 14.9736 8.86206 15.1396C9.02765 15.3047 9.26801 15.3711 9.49518 15.3145L12.1618 14.6475C12.2791 14.6182 12.3861 14.5576 12.4716 14.4727L18.8049 8.13965C19.1951 7.74902 19.4144 7.21973 19.4144 6.66797C19.4144 6.11621 19.1951 5.58691 18.8049 5.19629C18.4146 4.80566 17.8854 4.58691 17.3335 4.58691ZM16.8049 6.13965C16.9451 5.99902 17.1352 5.91992 17.3335 5.91992C17.5317 5.91992 17.7219 5.99902 17.8621 6.13965C18.0023 6.2793 18.081 6.46973 18.081 6.66797C18.081 6.86621 18.0023 7.05664 17.8621 7.19629L11.6593 13.3994L10.2497 13.752L10.6021 12.3418L16.8049 6.13965ZM5.25256 6.58691C5.62762 6.21191 6.13629 6.00098 6.66675 6.00098L11.3334 6.00098C11.7016 6.00098 12.0001 6.2998 12.0001 6.66797C12.0001 7.03613 11.7016 7.33398 11.3334 7.33398L6.66675 7.33398C6.48993 7.33398 6.32037 7.4043 6.19537 7.5293C6.07031 7.6543 6.00006 7.82422 6.00006 8.00098L6.00006 17.334C6.00006 17.5107 6.07031 17.6807 6.19537 17.8057C6.32037 17.9307 6.48993 18.001 6.66675 18.001L16.0001 18.001C16.1769 18.001 16.3464 17.9307 16.4715 17.8057C16.5965 17.6807 16.6667 17.5107 16.6667 17.334L16.6667 12.668C16.6667 12.2998 16.9652 12.001 17.3334 12.001C17.7016 12.001 18.0001 12.2998 18.0001 12.668L18.0001 17.334C18.0001 17.8652 17.7894 18.373 17.4143 18.749C17.0392 19.124 16.5305 19.334 16.0001 19.334L6.66675 19.334C6.13629 19.334 5.62762 19.124 5.25256 18.749C4.87744 18.373 4.66675 17.8652 4.66675 17.334L4.66675 8.00098C4.66675 7.4707 4.87744 6.96191 5.25256 6.58691Z" clip-rule="evenodd" fill="currentColor" fill-opacity="1.000000" fill-rule="evenodd"/>
    </g>
</svg>