<svg width="16.000000" height="16.000000" viewBox="0 0 16 16" fill="none" xmlns="http://www.w3.org/2000/svg" xmlns:xlink="http://www.w3.org/1999/xlink">
    <defs>
        <clipPath id="clip226_67429">
            <rect width="16.000000" height="16.000000" fill="white" fill-opacity="0"/>
        </clipPath>
    </defs>
    <g clip-path="url(#clip226_67429)">
        <path d="M1.33 9L1.33 7.66C1.33 5.8 2.79 4.33 4.66 4.33L12.33 4.33L10.8 2.8C10.53 2.53 10.53 2.13 10.8 1.86C11.06 1.6 11.46 1.6 11.73 1.86L14.4 4.53C14.43 4.56 14.45 4.6 14.46 4.63C14.48 4.66 14.5 4.7 14.53 4.73C14.6 4.93 14.6 5.13 14.53 5.26C14.53 5.33 14.46 5.4 14.4 5.46L11.73 8.13C11.6 8.26 11.46 8.33 11.26 8.33C11.06 8.33 10.93 8.26 10.8 8.13C10.53 7.86 10.53 7.46 10.8 7.2L12.33 5.66L4.66 5.66C3.56 5.66 2.66 6.56 2.66 7.66L2.66 9C2.66 10.1 3.56 11 4.66 11L8.33 11C8.7 11 8.99 11.29 8.99 11.66C8.99 12.03 8.7 12.33 8.33 12.33L4.66 12.33C2.82 12.33 1.33 10.84 1.33 9Z" fill="#B2B2B2" fill-opacity="1.000000" fill-rule="nonzero"/>
    </g>
</svg>