<svg width="16.000000" height="16.000000" viewBox="0 0 16 16" fill="none" xmlns="http://www.w3.org/2000/svg" xmlns:xlink="http://www.w3.org/1999/xlink">
    <defs>
        <clipPath id="clip226_67412">
            <rect width="16.000000" height="16.000000" fill="white" fill-opacity="0"/>
        </clipPath>
    </defs>
    <g clip-path="url(#clip226_67412)">
        <path d="M14.58 9L14.58 7.66C14.58 5.8 13.11 4.33 11.25 4.33L3.58 4.33L5.11 2.8C5.38 2.53 5.38 2.13 5.11 1.86C4.84 1.6 4.44 1.6 4.18 1.86L1.51 4.53C1.48 4.56 1.46 4.6 1.44 4.63C1.43 4.66 1.41 4.7 1.38 4.73C1.31 4.93 1.31 5.13 1.38 5.26C1.38 5.33 1.44 5.4 1.51 5.46L4.18 8.13C4.31 8.26 4.44 8.33 4.64 8.33C4.84 8.33 4.98 8.26 5.11 8.13C5.38 7.86 5.38 7.46 5.11 7.2L3.58 5.66L11.25 5.66C12.35 5.66 13.25 6.56 13.25 7.66L13.25 9C13.25 10.1 12.35 11 11.25 11L7.58 11C7.21 11 6.91 11.29 6.91 11.66C6.91 12.03 7.21 12.33 7.58 12.33L11.25 12.33C13.09 12.33 14.58 10.84 14.58 9Z" fill="#B2B2B2" fill-opacity="1.000000" fill-rule="nonzero"/>
    </g>
</svg>