<svg width="24.000000" height="24.000000" viewBox="0 0 24 24" fill="none" xmlns="http://www.w3.org/2000/svg" xmlns:xlink="http://www.w3.org/1999/xlink">
    <defs>
        <clipPath id="clip175_75340">
            <rect id="icon" width="16.000000" height="16.000000" transform="translate(4.000000 4.000000)" fill="white" fill-opacity="0"/>
        </clipPath>
        <radialGradient gradientTransform="translate(12 12) rotate(90) scale(8 8)" cx="0.000000" cy="0.000000" r="1.000000" id="paint_angular_175_75343_0" gradientUnits="userSpaceOnUse">
            <stop stop-color="#FFFFFF" stop-opacity="0.000000"/>
            <stop offset="1.000000" stop-color="#000000"/>
        </radialGradient>
    </defs>
    <g clip-path="url(#clip175_75340)">
        <path id="Shape" d="M15.3332 6.66406L15.3332 7.33105L16.6665 7.33105C16.6877 7.33105 16.7087 7.33203 16.7294 7.33398L18 7.33398C18.3682 7.33398 18.6667 7.63184 18.6667 8C18.6667 8.36816 18.3682 8.66699 18 8.66699L17.3332 8.66699L17.3332 17.3311C17.3332 17.8613 17.1225 18.3701 16.7474 18.7451C16.3723 19.1201 15.8636 19.3311 15.3332 19.3311L8.66653 19.3311C8.13608 19.3311 7.62738 19.1201 7.25232 18.7451C6.87723 18.3701 6.66653 17.8613 6.66653 17.3311L6.66653 8.66699L6.00003 8.66699C5.63184 8.66699 5.33337 8.36816 5.33337 8C5.33337 7.63184 5.63184 7.33398 6.00003 7.33398L7.27026 7.33398C7.29099 7.33203 7.31198 7.33105 7.33319 7.33105L8.66653 7.33105L8.66653 6.66406C8.66653 6.13379 8.87723 5.625 9.25232 5.25C9.62738 4.875 10.1361 4.66406 10.6665 4.66406L13.3332 4.66406C13.8636 4.66406 14.3723 4.875 14.7474 5.25C15.1225 5.625 15.3332 6.13379 15.3332 6.66406ZM10.1951 6.19238C10.3201 6.06738 10.4897 5.99707 10.6665 5.99707L13.3332 5.99707C13.51 5.99707 13.6796 6.06738 13.8046 6.19238C13.9296 6.31738 13.9998 6.4873 13.9998 6.66406L13.9998 7.33105L9.99985 7.33105L9.99985 6.66406C9.99985 6.4873 10.0701 6.31738 10.1951 6.19238ZM7.99985 8.66699L7.99985 17.3311C7.99985 17.5078 8.0701 17.6768 8.19513 17.8018C8.32013 17.9268 8.48972 17.9971 8.66653 17.9971L15.3332 17.9971C15.51 17.9971 15.6796 17.9268 15.8046 17.8018C15.9296 17.6768 15.9998 17.5078 15.9998 17.3311L15.9998 8.66699L7.99985 8.66699ZM10.6667 10.668C11.0349 10.668 11.3333 10.9658 11.3333 11.334L11.3333 15.334C11.3333 15.7021 11.0349 16.001 10.6667 16.001C10.2985 16.001 10 15.7021 10 15.334L10 11.334C10 10.9658 10.2985 10.668 10.6667 10.668ZM13.9999 11.334C13.9999 10.9658 13.7014 10.668 13.3333 10.668C12.9651 10.668 12.6666 10.9658 12.6666 11.334L12.6666 15.334C12.6666 15.7021 12.9651 16.001 13.3333 16.001C13.7014 16.001 13.9999 15.7021 13.9999 15.334L13.9999 11.334Z" clip-rule="evenodd" fill="#B2B2B2" fill-opacity="1.000000" fill-rule="evenodd"/>
    </g>
</svg>