<svg width="24.000000" height="24.000000" viewBox="0 0 24 24" fill="none" xmlns="http://www.w3.org/2000/svg" xmlns:xlink="http://www.w3.org/1999/xlink">
	<defs>
		<clipPath id="clip208_154706">
			<rect id="bold" width="16.000000" height="16.000000" transform="translate(4.000000 4.000000)" fill="white" fill-opacity="0"/>
		</clipPath>
		<radialGradient gradientTransform="translate(12 12) rotate(90) scale(8 8)" cx="0.000000" cy="0.000000" r="1.000000" id="paint_angular_208_154714_0" gradientUnits="userSpaceOnUse">
			<stop stop-color="#FFFFFF" stop-opacity="0.000000"/>
			<stop offset="1.000000" stop-color="#000000"/>
		</radialGradient>
	</defs>
	<g clip-path="url(#clip208_154706)">
		<path id="Shape" d="M7.33325 6.66699C7.33325 6.29883 7.63171 6 7.99988 6L13.3333 6C14.2173 6 15.0652 6.35156 15.6903 6.97656C16.3154 7.60156 16.6666 8.44922 16.6666 9.33301C16.6666 10.2178 16.3154 11.0654 15.6903 11.6904C15.6682 11.7119 15.646 11.7344 15.6234 11.7559C15.89 11.9043 16.1372 12.0898 16.3569 12.3096C16.9821 12.9346 17.3333 13.7822 17.3333 14.667C17.3333 15.5508 16.9821 16.3984 16.3569 17.0234C15.7318 17.6484 14.884 18 13.9999 18L7.99988 18C7.63171 18 7.33325 17.7012 7.33325 17.333L7.33325 12.0039L7.33325 12L7.33325 6.66699ZM8.66663 7.33301L8.66663 11.333L13.3333 11.333C13.8636 11.333 14.3724 11.123 14.7474 10.7471C15.1226 10.3721 15.3333 9.86328 15.3333 9.33301C15.3333 8.80273 15.1226 8.29395 14.7474 7.91895C14.3724 7.54395 13.8636 7.33301 13.3333 7.33301L8.66663 7.33301ZM8.66663 16.667L8.66663 12.667L13.9999 12.667C14.5304 12.667 15.0391 12.877 15.4142 13.2529C15.7892 13.6279 15.9999 14.1367 15.9999 14.667C15.9999 15.1973 15.7892 15.7061 15.4142 16.0811C15.0391 16.4561 14.5304 16.667 13.9999 16.667L8.66663 16.667Z" clip-rule="evenodd" fill="currentColor" fill-opacity="1.000000" fill-rule="evenodd"/>
	</g>
</svg>
