<svg width="32.000000" height="32.000000" viewBox="0 0 32 32" fill="none" xmlns="http://www.w3.org/2000/svg" xmlns:xlink="http://www.w3.org/1999/xlink">
    <defs>
        <clipPath id="clip208_157445">
            <rect id="icon" width="16.000000" height="16.000000" transform="translate(8.000000 8.000000)" fill="white" fill-opacity="0"/>
        </clipPath>
        <radialGradient gradientTransform="translate(16 16) rotate(90) scale(8 8)" cx="0.000000" cy="0.000000" r="1.000000" id="paint_angular_208_157451_0" gradientUnits="userSpaceOnUse">
            <stop stop-color="#FFFFFF" stop-opacity="0.000000"/>
            <stop offset="1.000000" stop-color="#000000"/>
        </radialGradient>
    </defs>
    <g clip-path="url(#clip208_157445)">
        <path id="Shape" d="M13.33 10C12.59 10 12 10.59 12 11.33C12 12.06 12.59 12.66 13.33 12.66C14.06 12.66 14.66 12.06 14.66 11.33C14.66 10.59 14.06 10 13.33 10ZM13.33 14.66C12.59 14.66 12 15.26 12 16C12 16.73 12.59 17.33 13.33 17.33C14.06 17.33 14.66 16.73 14.66 16C14.66 15.26 14.06 14.66 13.33 14.66ZM12 20.66C12 19.93 12.59 19.33 13.33 19.33C14.06 19.33 14.66 19.93 14.66 20.66C14.66 21.4 14.06 22 13.33 22C12.59 22 12 21.4 12 20.66ZM18.66 14.66C17.93 14.66 17.33 15.26 17.33 16C17.33 16.73 17.93 17.33 18.66 17.33C19.4 17.33 20 16.73 20 16C20 15.26 19.4 14.66 18.66 14.66ZM17.33 11.33C17.33 10.59 17.93 10 18.66 10C19.4 10 20 10.59 20 11.33C20 12.06 19.4 12.66 18.66 12.66C17.93 12.66 17.33 12.06 17.33 11.33ZM18.66 19.33C17.93 19.33 17.33 19.93 17.33 20.66C17.33 21.4 17.93 22 18.66 22C19.4 22 20 21.4 20 20.66C20 19.93 19.4 19.33 18.66 19.33Z" fill="currentColor" fill-opacity="1.000000" fill-rule="evenodd"/>
    </g>
</svg>