<svg width="24.000000" height="24.000000" viewBox="0 0 24 24" fill="none" xmlns="http://www.w3.org/2000/svg" xmlns:xlink="http://www.w3.org/1999/xlink">
	<defs>
		<clipPath id="clip208_154803">
			<rect id="smile" width="16.000000" height="16.000000" transform="translate(4.000000 4.000000)" fill="white" fill-opacity="0"/>
		</clipPath>
		<radialGradient gradientTransform="translate(12 12) rotate(90) scale(8 8)" cx="0.000000" cy="0.000000" r="1.000000" id="paint_angular_208_154813_0" gradientUnits="userSpaceOnUse">
			<stop stop-color="#FFFFFF" stop-opacity="0.000000"/>
			<stop offset="1.000000" stop-color="#000000"/>
		</radialGradient>
	</defs>
	<g clip-path="url(#clip208_154803)">
		<path id="Shape" d="M12.0001 4.66699C7.93347 4.66699 4.66675 7.93359 4.66675 12C4.66675 16.0674 7.93347 19.334 12.0001 19.334C16.0668 19.334 19.3334 16.0674 19.3334 12C19.3334 7.93359 16.0668 4.66699 12.0001 4.66699ZM12.0001 18C8.66675 18 6.00012 15.334 6.00012 12C6.00012 8.66699 8.66675 6 12.0001 6C15.3334 6 18.0001 8.66699 18.0001 12C18.0001 15.334 15.3334 18 12.0001 18ZM10.0001 10.667C10.4 10.667 10.6667 10.4004 10.6667 10C10.6667 9.60059 10.4 9.33398 10.0001 9.33398C9.6001 9.33398 9.33337 9.60059 9.33337 10C9.33337 10.4004 9.66675 10.667 10.0001 10.667ZM14.6667 10C14.6667 10.4004 14.4001 10.667 14.0001 10.667C13.6667 10.667 13.3334 10.4004 13.3334 10C13.3334 9.60059 13.6001 9.33398 14.0001 9.33398C14.4001 9.33398 14.6667 9.60059 14.6667 10ZM12.0001 14C13.2668 14 14.1335 12.9336 14.1335 12.9336C14.3335 12.667 14.8002 12.6006 15.0669 12.8008C15.3335 13 15.4001 13.4668 15.2002 13.7334C15.1335 13.8008 14.0001 15.334 12.0001 15.334C10.0001 15.334 8.86682 13.8008 8.80017 13.7334C8.60022 13.4668 8.66687 13 8.93347 12.8008C9.2002 12.6006 9.66687 12.667 9.86682 12.9336C9.86682 12.9336 10.7335 14 12.0001 14Z" clip-rule="evenodd" fill="currentColor" fill-opacity="1.000000" fill-rule="evenodd"/>
	</g>
</svg>
