<svg width="24.000000" height="24.000000" viewBox="0 0 24 24" fill="none" xmlns="http://www.w3.org/2000/svg" xmlns:xlink="http://www.w3.org/1999/xlink">
	<defs>
		<clipPath id="clip208_154783">
			<rect id="link" width="16.000000" height="16.000000" transform="translate(4.000000 4.000000)" fill="white" fill-opacity="0"/>
		</clipPath>
		<radialGradient gradientTransform="translate(12 12) rotate(90) scale(8 8)" cx="0.000000" cy="0.000000" r="1.000000" id="paint_angular_208_154791_0" gradientUnits="userSpaceOnUse">
			<stop stop-color="#FFFFFF" stop-opacity="0.000000"/>
			<stop offset="1.000000" stop-color="#000000"/>
		</radialGradient>
	</defs>
	<g clip-path="url(#clip208_154783)">
		<path id="Shape" d="M12.517 5.83398C13.2714 5.10547 14.2819 4.70215 15.3306 4.71094C16.3794 4.71973 17.3827 5.14062 18.1243 5.88281C18.8658 6.62402 19.2866 7.62695 19.2957 8.67578C19.3048 9.72461 18.9016 10.7354 18.173 11.4902L18.1649 11.498L16.1649 13.498C15.7594 13.9033 15.2715 14.2178 14.734 14.418C14.1967 14.6182 13.6224 14.7012 13.0503 14.6602C12.4781 14.6191 11.9215 14.4551 11.4182 14.1807C10.9148 13.9053 10.4766 13.5254 10.1329 13.0664C9.91248 12.7715 9.97266 12.3535 10.2675 12.1328C10.5623 11.9121 10.9801 11.9727 11.2007 12.2676C11.4297 12.5732 11.7219 12.8271 12.0575 13.0098C12.3931 13.1934 12.7642 13.3027 13.1455 13.3301C13.527 13.3574 13.9098 13.3018 14.2681 13.1689C14.6263 13.0352 14.9517 12.8262 15.2219 12.5557L15.222 12.5557L17.2178 10.5596C17.701 10.0566 17.9685 9.38477 17.9624 8.6875C17.9563 7.98828 17.6759 7.31934 17.1814 6.8252C16.687 6.33105 16.0182 6.05078 15.319 6.04395C14.6213 6.03809 13.9491 6.30566 13.4465 6.79004L12.3035 7.92578C12.0424 8.18555 11.6202 8.18457 11.3607 7.92285C11.1011 7.66211 11.1023 7.24023 11.3634 6.98047L12.5101 5.84082L12.517 5.83398ZM10.95 9.33984C10.3778 9.29883 9.80359 9.38184 9.26611 9.58203C8.72876 9.78223 8.24072 10.0967 7.83521 10.502L5.83533 12.502L5.82715 12.5098C5.09851 13.2646 4.69543 14.2754 4.70447 15.3242C4.71362 16.373 5.13428 17.376 5.87598 18.1172C6.61755 18.8594 7.62085 19.2803 8.66956 19.2891C9.71838 19.2979 10.7288 18.8945 11.4832 18.166L11.4915 18.1582L12.6315 17.0186C12.8918 16.7578 12.8918 16.3359 12.6315 16.0752C12.3711 15.8145 11.949 15.8145 11.6886 16.0752L10.553 17.2109C10.0504 17.6943 9.37854 17.9619 8.68115 17.9561C7.98193 17.9492 7.31311 17.6689 6.81873 17.1748C6.32434 16.6807 6.04382 16.0117 6.03772 15.3125C6.03174 14.6152 6.29907 13.9434 6.78247 13.4404L8.7782 11.4443C9.04858 11.1738 9.3739 10.9648 9.73218 10.8311C10.0905 10.6982 10.4733 10.6426 10.8546 10.6699C11.2361 10.6973 11.6072 10.8066 11.9427 10.9902C12.2783 11.1729 12.5706 11.4268 12.7996 11.7324C13.02 12.0273 13.4379 12.0879 13.7327 11.8672C14.0276 11.6465 14.0878 11.2285 13.8672 10.9336C13.5237 10.4746 13.0853 10.0947 12.582 9.81934C12.0786 9.54492 11.522 9.38086 10.95 9.33984Z" clip-rule="evenodd" fill="currentColor" fill-opacity="1.000000" fill-rule="evenodd"/>
	</g>
</svg>
