<svg width="24.000000" height="24.000000" viewBox="0 0 24 24" fill="none" xmlns="http://www.w3.org/2000/svg" xmlns:xlink="http://www.w3.org/1999/xlink">
	<defs>
		<clipPath id="clip208_154765">
			<rect id="code" width="16.000000" height="16.000000" transform="translate(4.000000 4.000000)" fill="white" fill-opacity="0"/>
		</clipPath>
		<radialGradient gradientTransform="translate(12 12) rotate(90) scale(8 8)" cx="0.000000" cy="0.000000" r="1.000000" id="paint_angular_208_154771_0" gradientUnits="userSpaceOnUse">
			<stop stop-color="#FFFFFF" stop-opacity="0.000000"/>
			<stop offset="1.000000" stop-color="#000000"/>
		</radialGradient>
	</defs>
	<g clip-path="url(#clip208_154765)">
		<path id="Shape" d="M12.68 6.5L10.01 17.17C9.92 17.53 10.14 17.88 10.5 17.98C10.86 18.07 11.22 17.85 11.31 17.49L13.98 6.82C14.07 6.46 13.85 6.11 13.49 6.01C13.13 5.92 12.77 6.14 12.68 6.5ZM6.94 12L9.13 9.8C9.4 9.54 9.4 9.12 9.13 8.86C8.87 8.59 8.45 8.59 8.19 8.86L5.52 11.52C5.39 11.65 5.33 11.81 5.33 12C5.33 12.18 5.39 12.34 5.52 12.47L8.19 15.13C8.45 15.4 8.87 15.4 9.13 15.13C9.4 14.87 9.4 14.45 9.13 14.19L6.94 12ZM15.8 8.86C15.54 8.59 15.12 8.59 14.86 8.86C14.59 9.12 14.59 9.54 14.86 9.8L17.05 12L14.86 14.19C14.59 14.45 14.59 14.87 14.86 15.13C15.12 15.4 15.54 15.4 15.8 15.13L18.47 12.47C18.6 12.34 18.66 12.18 18.66 12C18.66 11.81 18.6 11.65 18.47 11.52L15.8 8.86Z" fill="currentColor" fill-opacity="1.000000" fill-rule="evenodd"/>
	</g>
</svg>
