<svg width="24.000000" height="24.000000" viewBox="0 0 24 24" fill="none" xmlns="http://www.w3.org/2000/svg" xmlns:xlink="http://www.w3.org/1999/xlink">
	<defs>
		<clipPath id="clip208_154747">
			<rect id="font-strikethrough" width="16.000000" height="16.000000" transform="translate(4.000000 4.000000)" fill="white" fill-opacity="0"/>
		</clipPath>
		<radialGradient gradientTransform="translate(12 12) rotate(90) scale(8 8)" cx="0.000000" cy="0.000000" r="1.000000" id="paint_angular_208_154753_0" gradientUnits="userSpaceOnUse">
			<stop stop-color="#FFFFFF" stop-opacity="0.000000"/>
			<stop offset="1.000000" stop-color="#000000"/>
		</radialGradient>
	</defs>
	<g clip-path="url(#clip208_154747)">
		<path id="Shape" d="M7.83 5.83L16.16 5.83C16.54 5.83 16.83 6.12 16.83 6.5C16.83 6.87 16.54 7.16 16.16 7.16L12.66 7.16L12.66 8.83C12.66 9.2 12.37 9.5 12 9.5C11.62 9.5 11.33 9.2 11.33 8.83L11.33 7.16L7.83 7.16C7.45 7.16 7.16 6.87 7.16 6.5C7.16 6.12 7.45 5.83 7.83 5.83ZM7.16 11.33L16.83 11.33C17.2 11.33 17.5 11.62 17.5 12C17.5 12.37 17.2 12.66 16.83 12.66L7.16 12.66C6.79 12.66 6.5 12.37 6.5 12C6.5 11.62 6.79 11.33 7.16 11.33ZM12.66 14.5C12.66 14.12 12.37 13.83 12 13.83C11.62 13.83 11.33 14.12 11.33 14.5L11.33 17.5C11.33 17.87 11.62 18.16 12 18.16C12.37 18.16 12.66 17.87 12.66 17.5L12.66 14.5Z" fill="currentColor" fill-opacity="1.000000" fill-rule="evenodd"/>
	</g>
</svg>
